<?xml version="1.0" encoding="utf-8"?>
<svg xmlns="http://www.w3.org/2000/svg"
 width="100.000000pt" height="100.000000pt" viewBox="0 0 100.000000 100.000000"
 preserveAspectRatio="xMidYMid meet">

<g transform="translate(0.000000,100.000000) scale(0.100000,-0.100000)"
fill="currentColor" stroke="none">
<path d="M280 863 c0 -5 7 -32 14 -60 8 -29 11 -53 7 -53 -12 0 -38 24 -49 45
-10 17 -11 17 -12 3 0 -12 -5 -15 -17 -11 -30 12 -5 -14 27 -27 28 -12 29 -14
13 -26 -21 -16 -10 -18 17 -4 32 17 44 -14 48 -123 l4 -100 -28 7 c-16 4 -52
30 -80 57 -27 27 -53 47 -57 43 -3 -4 5 -28 18 -55 28 -54 20 -69 -22 -43 -17
11 -23 12 -15 4 6 -8 12 -17 12 -21 0 -4 -6 -9 -12 -12 -16 -5 32 2 53 9 10 3
20 -5 26 -19 6 -13 32 -37 57 -53 43 -27 46 -32 46 -72 0 -55 -22 -87 -95
-137 -30 -21 -55 -43 -55 -48 0 -12 133 2 184 19 37 14 42 13 78 -11 l38 -25
39 20 c39 19 40 19 83 1 53 -24 208 -64 216 -57 3 4 -25 37 -61 75 -72 74 -87
102 -87 160 0 34 6 43 46 77 30 24 55 56 70 89 22 51 40 68 66 61 7 -1 9 -1 5
2 -4 2 -2 11 5 20 11 13 8 13 -19 -2 l-33 -16 10 25 c20 53 4 47 -45 -16 -34
-43 -79 -79 -100 -79 -3 0 -5 21 -5 47 0 40 5 52 33 81 20 21 25 31 13 26 -14
-5 -17 -3 -14 12 3 19 52 43 64 31 13 -12 -7 -58 -29 -67 -16 -6 -17 -9 -5 -9
25 -1 48 27 48 60 0 25 -4 29 -29 29 -38 0 -64 -26 -57 -55 4 -14 0 -28 -11
-36 -15 -13 -16 -8 -10 61 4 41 10 92 13 113 4 20 3 37 -3 37 -5 0 -30 -35
-56 -77 -47 -77 -47 -78 -47 -41 0 20 5 60 11 88 6 28 8 54 5 58 -10 9 -63
-57 -88 -110 l-23 -47 -35 65 c-19 35 -38 64 -42 64 -4 0 -8 -28 -8 -62 l0
-63 -51 78 c-46 68 -69 92 -69 70z m281 -138 c-1 -47 1 -85 6 -85 4 0 26 29
49 65 l40 65 -4 -145 c-3 -80 -2 -145 2 -145 19 0 104 51 110 66 4 9 9 15 11
12 13 -13 -30 -81 -75 -120 -47 -40 -50 -46 -50 -91 0 -58 18 -95 79 -160 31
-34 40 -48 26 -44 -11 3 -33 9 -50 13 -16 4 -56 17 -88 30 l-57 24 -39 -19
-38 -20 -37 25 c-33 23 -41 24 -69 14 -39 -14 -137 -29 -137 -21 0 3 16 17 34
31 54 40 76 79 76 136 0 47 -2 50 -45 78 -29 18 -54 44 -67 70 l-20 41 23 -21
c22 -19 78 -44 100 -44 15 0 10 181 -6 240 -22 80 -19 81 26 13 23 -35 46 -63
50 -63 5 0 9 26 9 58 l0 57 33 -57 c17 -32 35 -58 39 -58 3 0 14 22 22 48 13
40 41 92 49 92 1 0 0 -38 -2 -85z"/>
<path d="M390 565 c0 -17 27 -45 43 -45 7 0 19 5 27 10 18 11 7 23 -37 38 -27
9 -33 8 -33 -3z"/>
<path d="M571 565 c-39 -13 -50 -29 -25 -39 25 -9 52 2 59 25 9 27 6 28 -34
14z"/>
<path d="M400 375 c0 -82 1 -85 19 -75 11 5 23 15 26 21 5 7 16 2 31 -12 l24
-22 23 21 22 20 25 -20 25 -20 3 46 c2 26 2 65 0 88 l-3 40 -25 -20 -25 -20
-22 20 -23 21 -24 -22 c-15 -14 -26 -19 -31 -12 -3 6 -15 16 -26 21 -18 10
-19 7 -19 -75z m80 53 c26 15 30 15 47 -1 17 -15 21 -15 41 -1 22 15 22 15 22
-51 0 -66 0 -66 -21 -51 -19 13 -24 13 -45 -1 -22 -14 -26 -14 -48 0 -21 14
-26 14 -45 1 -21 -15 -21 -15 -21 51 0 65 0 66 21 52 18 -13 24 -13 49 1z"/>
</g>
</svg>
