<?xml version="1.0" encoding="utf-8"?>
<svg xmlns="http://www.w3.org/2000/svg"
 width="100.000000pt" height="100.000000pt" viewBox="0 0 100.000000 100.000000"
 preserveAspectRatio="xMidYMid meet">

<g transform="translate(0.000000,100.000000) scale(0.100000,-0.100000)"
fill="currentColor" stroke="none">
<path d="M180 835 c0 -14 94 -225 100 -225 4 0 15 20 24 44 15 38 24 47 62 62
24 9 44 20 44 24 0 6 -211 100 -225 100 -3 0 -5 -2 -5 -5z m130 -68 l55 -25
-32 -12 c-21 -8 -35 -22 -43 -43 l-12 -32 -25 55 c-14 30 -29 65 -34 77 -9 25
-8 25 91 -20z"/>
<path d="M698 793 c-60 -25 -108 -49 -108 -53 0 -4 20 -15 44 -24 38 -15 47
-24 62 -62 9 -24 20 -44 24 -44 6 0 100 211 100 225 0 9 -14 5 -122 -42z m83
-5 c-5 -13 -20 -48 -34 -78 l-25 -55 -12 32 c-8 21 -22 35 -42 42 -17 6 -29
13 -27 16 4 3 139 64 146 65 1 0 -1 -10 -6 -22z"/>
<path d="M578 459 c133 -134 239 -248 235 -252 -4 -4 -118 102 -252 235 -135
134 -210 206 -166 161 l79 -83 -49 -50 c-46 -47 -52 -50 -100 -50 -49 0 -52
-2 -118 -68 -37 -37 -67 -71 -67 -75 0 -4 19 -7 42 -7 l42 0 -27 -28 c-21 -22
-24 -31 -15 -40 9 -9 18 -6 40 15 l28 27 0 -42 c0 -23 3 -42 8 -42 4 0 38 30
75 68 65 65 67 69 67 118 0 47 3 53 50 99 l50 49 50 -49 c47 -46 50 -52 50
-100 0 -49 2 -52 68 -118 37 -37 71 -67 75 -67 4 0 7 19 7 42 l0 42 28 -27
c22 -21 31 -24 40 -15 9 9 6 18 -15 40 l-27 28 42 0 c23 0 42 3 42 8 0 4 -30
38 -68 75 -65 65 -69 67 -118 67 -47 0 -53 3 -99 50 l-49 50 79 83 80 82 -82
-79 c-45 -44 -86 -77 -90 -73 -4 4 29 45 73 90 l79 82 -82 -80 -83 -80 -82 80
c-46 44 26 -31 160 -166z m-88 43 c0 -14 -296 -303 -303 -295 -8 7 281 303
295 303 5 0 8 -3 8 -8z m-145 -112 c-3 -5 -22 -10 -41 -10 -21 0 -33 4 -29 10
3 6 22 10 41 10 21 0 33 -4 29 -10z m380 0 c4 -6 -8 -10 -29 -10 -19 0 -38 5
-41 10 -4 6 8 10 29 10 19 0 38 -4 41 -10z m-410 -30 c-3 -5 -13 -10 -21 -10
-8 0 -13 -5 -11 -12 1 -7 -11 -15 -28 -19 -18 -4 -22 -7 -10 -8 13 -1 16 -4 8
-12 -6 -6 -26 -9 -44 -7 -31 4 -32 5 -12 14 12 5 21 13 20 19 -1 5 12 13 28
16 17 4 22 7 12 8 -33 2 -7 21 29 21 21 0 33 -4 29 -10z m56 -63 c-8 -8 -11
-1 -11 24 0 46 14 60 18 19 2 -18 -1 -37 -7 -43z m269 27 c0 -21 -4 -33 -10
-29 -5 3 -10 22 -10 41 0 21 4 33 10 29 6 -3 10 -22 10 -41z m115 36 c3 -5 -2
-11 -12 -11 -10 -1 -4 -4 12 -8 17 -3 29 -10 27 -16 -2 -5 7 -14 20 -19 22 -9
21 -10 -11 -14 -18 -2 -38 1 -44 7 -8 8 -5 11 9 12 11 1 7 4 -11 8 -16 4 -29
12 -27 19 1 7 -4 12 -12 12 -8 0 -18 5 -21 10 -4 6 8 10 29 10 19 0 38 -4 41
-10z m-410 -88 c-6 -15 -8 -15 -15 3 -8 18 -9 17 -9 -7 -1 -29 -16 -46 -24
-26 -3 7 -6 3 -6 -9 -2 -38 -21 -37 -21 1 0 36 14 56 23 34 3 -7 6 -4 6 6 1
11 11 31 24 44 l22 24 3 -27 c2 -15 0 -34 -3 -43z m356 4 c0 -12 3 -15 6 -8 9
22 23 2 23 -34 0 -38 -19 -39 -21 -1 0 12 -3 16 -6 9 -8 -19 -23 -3 -24 26 -1
17 -3 21 -6 9 -7 -29 -23 -8 -23 30 l0 36 25 -23 c14 -13 25 -33 26 -44z"/>
</g>
</svg>
