<?xml version="1.0" encoding="utf-8"?>
<svg xmlns="http://www.w3.org/2000/svg"
 width="100.000000pt" height="100.000000pt" viewBox="0 0 100.000000 100.000000"
 preserveAspectRatio="xMidYMid meet">

<g transform="translate(0.000000,100.000000) scale(0.100000,-0.100000)"
fill="currentColor" stroke="none">
<path d="M166 885 c-4 -15 -16 -27 -31 -31 -32 -8 -32 -20 0 -28 15 -4 27 -16
31 -31 3 -14 10 -25 14 -25 4 0 11 11 14 25 4 15 16 27 31 31 32 8 32 20 0 28
-15 4 -27 16 -31 31 -3 14 -10 25 -14 25 -4 0 -11 -11 -14 -25z m34 -25 l20
-20 -20 -20 -20 -20 -20 20 c-19 19 -19 21 -2 39 22 24 19 24 42 1z"/>
<path d="M689 850 c-17 -31 -27 -39 -41 -34 -23 7 -48 -12 -48 -36 0 -9 -9
-25 -20 -35 -18 -16 -25 -17 -80 -5 -149 32 -294 -39 -360 -175 -19 -41 -24
-66 -24 -135 -1 -78 2 -90 33 -148 38 -70 70 -100 145 -140 43 -22 64 -26 136
-26 72 0 93 4 136 26 75 39 107 70 142 135 38 73 49 144 32 223 -12 55 -11 62
5 80 10 11 26 20 35 20 24 0 43 25 36 48 -5 14 4 24 35 41 l41 23 -88 89 c-49
49 -90 89 -91 89 -1 0 -12 -18 -24 -40z m109 -53 c39 -40 72 -75 72 -79 0 -3
-16 -16 -36 -29 l-36 -22 -65 66 -66 65 22 36 c13 20 26 36 30 36 3 0 39 -33
79 -73z m-76 -74 c74 -73 93 -103 66 -103 -6 0 -21 8 -32 18 -20 16 -20 16 -7
-1 13 -16 11 -22 -16 -50 -29 -31 -29 -34 -17 -72 13 -41 18 -127 9 -137 -3
-3 -22 12 -43 32 -64 64 -137 74 -259 35 -95 -30 -138 -31 -181 -5 -34 21 -71
87 -72 126 0 32 65 100 125 129 67 33 153 42 216 22 l47 -14 31 31 31 30 57
-54 58 -55 -57 60 c-57 59 -70 85 -46 85 7 0 48 -35 90 -77z m-552 -200 c0
-29 35 -75 72 -94 50 -25 90 -24 184 7 127 42 229 18 276 -63 17 -29 17 -32
-8 -81 -50 -101 -143 -156 -264 -157 -62 0 -85 5 -132 28 -125 61 -191 201
-158 336 11 46 30 62 30 24z"/>
<path d="M424 635 c-4 -9 -2 -21 4 -27 15 -15 44 -1 40 19 -4 23 -36 29 -44 8z
m36 -10 c0 -8 -7 -15 -15 -15 -8 0 -15 7 -15 15 0 8 7 15 15 15 8 0 15 -7 15
-15z"/>
<path d="M294 565 c-4 -9 -2 -21 4 -27 15 -15 44 -1 40 19 -4 23 -36 29 -44 8z
m36 -10 c0 -8 -7 -15 -15 -15 -8 0 -15 7 -15 15 0 8 7 15 15 15 8 0 15 -7 15
-15z"/>
<path d="M554 556 c-10 -26 4 -48 28 -44 33 4 33 52 0 56 -13 2 -25 -3 -28
-12z m42 -7 c10 -17 -13 -36 -27 -22 -12 12 -4 33 11 33 5 0 12 -5 16 -11z"/>
<path d="M424 365 c-4 -9 -2 -21 4 -27 15 -15 44 -1 40 19 -4 23 -36 29 -44 8z
m36 -10 c0 -8 -7 -15 -15 -15 -8 0 -15 7 -15 15 0 8 7 15 15 15 8 0 15 -7 15
-15z"/>
<path d="M224 346 c-10 -26 4 -48 28 -44 33 4 33 52 0 56 -13 2 -25 -3 -28
-12z m42 -7 c10 -17 -13 -36 -27 -22 -12 12 -4 33 11 33 5 0 12 -5 16 -11z"/>
<path d="M564 315 c-4 -9 -2 -21 4 -27 15 -15 44 -1 40 19 -4 23 -36 29 -44 8z
m36 -10 c0 -8 -7 -15 -15 -15 -8 0 -15 7 -15 15 0 8 7 15 15 15 8 0 15 -7 15
-15z"/>
<path d="M384 276 c-10 -26 4 -48 28 -44 17 2 23 10 23 28 0 18 -6 26 -23 28
-13 2 -25 -3 -28 -12z m42 -7 c10 -17 -13 -36 -27 -22 -12 12 -4 33 11 33 5 0
12 -5 16 -11z"/>
<path d="M255 224 c67 -52 167 -76 235 -56 30 9 27 10 -25 5 -70 -6 -128 7
-179 42 -40 27 -63 34 -31 9z"/>
<path d="M564 204 c-18 -14 -18 -15 4 -4 12 6 22 13 22 15 0 8 -5 6 -26 -11z"/>
<path d="M791 232 c-8 -18 -25 -35 -43 -43 l-31 -13 30 -14 c17 -8 37 -28 45
-45 l14 -30 13 30 c7 16 26 37 43 45 l31 14 -30 13 c-16 7 -37 26 -45 43 l-14
31 -13 -31z m61 -48 c21 -6 21 -7 -4 -20 -15 -8 -30 -24 -34 -36 -6 -21 -7
-21 -20 4 -8 15 -24 30 -36 34 -21 6 -21 7 4 20 15 8 30 24 34 36 6 21 7 21
20 -4 8 -15 24 -30 36 -34z"/>
</g>
</svg>
