<?xml version="1.0" encoding="utf-8"?>
<svg xmlns="http://www.w3.org/2000/svg"
 width="100.000000pt" height="100.000000pt" viewBox="0 0 100.000000 100.000000"
 preserveAspectRatio="xMidYMid meet">

<g transform="translate(0.000000,100.000000) scale(0.100000,-0.100000)"
fill="currentColor" stroke="none">
<path d="M90 734 c0 -114 0 -116 29 -145 20 -20 39 -29 61 -29 l32 0 -7 -47
c-4 -27 -13 -73 -21 -103 -20 -76 -18 -119 9 -170 43 -84 105 -105 232 -75 72
17 78 17 150 0 127 -30 189 -9 233 75 27 54 28 92 2 195 -28 113 -27 125 11
125 20 0 40 10 60 29 29 29 29 31 29 145 0 64 -4 116 -8 116 -5 0 -21 -33 -38
-72 -26 -66 -32 -73 -59 -76 -26 -2 -35 4 -62 41 -21 31 -49 53 -89 73 -52 26
-70 29 -154 29 -84 0 -102 -3 -154 -29 -40 -20 -68 -42 -89 -73 -27 -37 -36
-43 -62 -41 -27 3 -33 10 -59 76 -17 39 -33 72 -38 72 -4 0 -8 -52 -8 -116z
m103 -42 c35 -3 35 -4 26 -35 -5 -18 -9 -44 -9 -59 0 -24 -4 -28 -30 -28 -19
0 -40 9 -55 25 -24 23 -25 30 -24 132 l0 108 28 -70 c27 -67 30 -70 64 -73z
m396 127 c27 -6 68 -24 90 -40 60 -43 82 -94 92 -213 5 -56 15 -126 24 -156
26 -96 15 -160 -37 -208 -36 -33 -87 -38 -179 -17 -76 18 -82 18 -158 0 -92
-21 -143 -16 -179 17 -52 48 -63 112 -37 208 9 30 19 100 24 156 10 116 32
168 87 210 63 49 170 65 273 43z m311 -94 c0 -99 -2 -107 -25 -130 -15 -16
-36 -25 -55 -25 -26 0 -30 4 -30 28 0 15 -4 41 -9 59 -9 31 -9 32 26 35 34 3
37 6 62 71 14 37 27 67 28 67 2 0 3 -47 3 -105z"/>
<path d="M414 775 c-4 -9 -2 -21 4 -27 15 -15 44 -1 40 19 -4 23 -36 29 -44 8z
m36 -10 c0 -8 -7 -15 -15 -15 -8 0 -15 7 -15 15 0 8 7 15 15 15 8 0 15 -7 15
-15z"/>
<path d="M564 739 c-10 -17 13 -36 27 -22 12 12 4 33 -11 33 -5 0 -12 -5 -16
-11z m26 -9 c0 -5 -4 -10 -10 -10 -5 0 -10 5 -10 10 0 6 5 10 10 10 6 0 10 -4
10 -10z"/>
<path d="M290 681 c0 -5 10 -11 21 -14 l21 -6 -21 -27 c-29 -37 -26 -70 8
-105 41 -41 74 -38 122 11 21 21 39 41 39 43 0 3 -13 7 -29 10 -16 4 -52 27
-81 52 -47 42 -80 57 -80 36z m65 -41 c3 -6 -1 -17 -9 -26 -35 -35 -2 -83 47
-68 l22 7 -23 8 c-12 5 -22 13 -22 18 0 20 20 21 51 2 l32 -19 -26 -26 c-33
-33 -71 -33 -102 -1 -29 28 -32 61 -9 93 16 24 29 28 39 12z"/>
<path d="M630 645 c-29 -25 -65 -48 -81 -52 -16 -3 -29 -7 -29 -10 0 -2 18
-22 39 -43 48 -49 81 -52 122 -11 34 35 37 68 8 105 l-21 27 21 6 c24 6 29 23
6 23 -8 0 -37 -20 -65 -45z m54 -17 c23 -32 20 -65 -9 -93 -31 -32 -69 -32
-102 1 -21 21 -23 28 -12 34 9 6 20 2 32 -11 19 -21 34 -23 55 -10 10 6 9 10
-7 14 -27 7 -27 27 -1 34 22 6 26 19 8 25 -12 4 -3 28 12 28 5 0 16 -10 24
-22z"/>
<path d="M244 475 c-4 -9 -2 -21 4 -27 15 -15 44 -1 40 19 -4 23 -36 29 -44 8z
m36 -10 c0 -8 -7 -15 -15 -15 -8 0 -15 7 -15 15 0 8 7 15 15 15 8 0 15 -7 15
-15z"/>
<path d="M674 475 c-4 -9 -2 -21 4 -27 15 -15 44 -1 40 19 -4 23 -36 29 -44 8z
m36 -10 c0 -8 -7 -15 -15 -15 -8 0 -15 7 -15 15 0 8 7 15 15 15 8 0 15 -7 15
-15z"/>
<path d="M324 459 c-10 -17 13 -36 27 -22 12 12 4 33 -11 33 -5 0 -12 -5 -16
-11z m26 -9 c0 -5 -4 -10 -10 -10 -5 0 -10 5 -10 10 0 6 5 10 10 10 6 0 10 -4
10 -10z"/>
<path d="M415 431 c-94 -25 -169 -89 -163 -138 5 -44 27 -49 125 -30 110 21
136 21 246 0 98 -19 120 -14 125 30 4 34 -50 94 -108 119 -50 22 -176 32 -225
19z m152 -7 c16 -5 26 -18 34 -47 10 -39 12 -40 25 -22 8 10 14 22 14 27 0 19
35 5 66 -26 49 -49 44 -96 -11 -96 -8 0 -19 19 -26 43 -11 41 -12 41 -26 20
-13 -19 -17 -20 -40 -8 -15 8 -58 13 -103 13 -45 0 -88 -5 -103 -13 -23 -12
-27 -11 -40 8 -14 21 -15 21 -26 -20 -7 -24 -18 -43 -26 -43 -55 0 -60 47 -11
96 31 31 66 45 66 26 0 -5 6 -17 14 -27 13 -18 15 -17 25 22 7 25 19 43 29 46
26 7 114 7 139 1z m-174 -34 c-3 -11 -9 -17 -14 -14 -14 8 -10 34 5 34 9 0 12
-7 9 -20z m237 6 c0 -24 -17 -28 -23 -6 -3 13 0 20 9 20 8 0 14 -6 14 -14z
m-37 -88 c15 -6 27 -13 27 -17 0 -3 -54 -6 -120 -6 -66 0 -120 3 -120 6 0 25
157 37 213 17z m-229 -14 c9 -22 8 -24 -9 -24 -8 0 -15 9 -15 20 0 24 15 27
24 4z m296 -4 c0 -11 -7 -20 -15 -20 -17 0 -18 2 -9 24 9 23 24 20 24 -4z"/>
<path d="M734 419 c-10 -17 13 -36 27 -22 12 12 4 33 -11 33 -5 0 -12 -5 -16
-11z m26 -9 c0 -5 -4 -10 -10 -10 -5 0 -10 5 -10 10 0 6 5 10 10 10 6 0 10 -4
10 -10z"/>
<path d="M224 389 c-10 -17 13 -36 27 -22 12 12 4 33 -11 33 -5 0 -12 -5 -16
-11z m26 -9 c0 -5 -4 -10 -10 -10 -5 0 -10 5 -10 10 0 6 5 10 10 10 6 0 10 -4
10 -10z"/>
<path d="M425 235 c-39 -14 -39 -14 -5 -8 19 4 53 10 75 14 l40 6 -35 1 c-19
0 -53 -6 -75 -13z"/>
<path d="M548 233 c6 -2 18 -2 25 0 6 3 1 5 -13 5 -14 0 -19 -2 -12 -5z"/>
</g>
</svg>
