<?xml version="1.0" encoding="utf-8"?>
<svg xmlns="http://www.w3.org/2000/svg"
 width="100.000000pt" height="100.000000pt" viewBox="0 0 100.000000 100.000000"
 preserveAspectRatio="xMidYMid meet">

<g transform="translate(0.000000,100.000000) scale(0.100000,-0.100000)"
fill="currentColor" stroke="none">
<path d="M181 815 c-17 -15 -36 -43 -42 -64 -10 -34 -8 -45 19 -107 l31 -69
-30 -51 c-29 -51 -29 -53 -29 -208 l0 -156 370 0 370 0 0 156 c0 155 0 157
-29 208 l-30 51 31 69 c27 61 29 73 19 106 -6 20 -22 47 -37 61 l-26 24 -293
3 -292 3 -32 -26z m627 -20 c16 -14 32 -36 34 -50 l5 -25 -131 0 -131 0 -15
33 c-18 38 -58 55 -97 41 -16 -5 -34 -23 -43 -41 l-15 -33 -134 0 c-117 0
-132 2 -127 16 3 9 6 20 6 25 0 5 57 10 128 11 l127 2 -117 3 c-65 2 -118 7
-118 12 0 24 59 30 322 30 l276 1 30 -25z m-261 -27 c40 -38 30 -48 -47 -48
-77 0 -85 8 -48 47 27 29 65 29 95 1z m293 -73 c0 -2 -11 -29 -24 -60 -17 -37
-31 -55 -43 -56 -15 0 -15 -2 3 -9 12 -5 33 -29 47 -54 23 -42 24 -46 7 -46
-11 0 -20 10 -24 25 -4 14 -18 31 -31 37 -14 6 -25 15 -25 20 0 16 -40 48 -61
48 -12 0 -27 8 -34 17 -9 12 -30 18 -73 19 -33 1 -70 8 -82 14 -18 10 -33 9
-77 -5 -30 -10 -57 -24 -60 -31 -3 -8 -16 -14 -28 -14 -13 0 -34 -12 -47 -29
-14 -16 -34 -34 -46 -40 -12 -6 -25 -23 -28 -36 -5 -19 -13 -25 -35 -25 l-28
0 27 48 c21 34 36 49 58 53 l29 7 -28 1 c-24 1 -32 9 -53 56 -13 31 -24 58
-24 60 0 3 153 5 340 5 187 0 340 -2 340 -5z m-344 -55 c6 -6 41 -12 78 -13
62 -3 85 -13 86 -38 0 -3 11 -4 23 -2 26 5 61 -21 54 -41 -5 -16 -96 -15 -109
1 -9 11 -14 10 -30 -3 -17 -17 -20 -16 -46 9 -21 20 -31 24 -39 16 -18 -18
-90 -20 -104 -3 -10 13 -15 12 -33 -5 -25 -23 -81 -37 -90 -22 -9 13 29 51 51
51 9 0 25 8 35 17 36 33 106 51 124 33z m-93 -101 c-36 -15 -47 -10 -28 11 14
16 21 18 32 8 13 -10 12 -13 -4 -19z m135 0 c-16 -10 -33 5 -23 21 5 8 11 8
21 -1 12 -10 12 -14 2 -20z m-38 -4 c7 -9 22 -12 39 -9 19 4 32 0 45 -15 24
-26 48 -27 63 -2 10 16 22 19 73 17 41 -1 64 -7 70 -16 25 -39 20 -40 -280
-40 -245 0 -290 2 -290 14 0 33 29 45 98 42 38 -2 82 2 102 9 48 17 66 17 80
0z m140 -17 c0 -15 -32 -21 -40 -7 -13 20 9 43 26 28 8 -6 14 -16 14 -21z
m-220 -108 l0 -40 -135 0 -135 0 0 40 0 40 135 0 135 0 0 -40z m150 -7 c0 -81
-64 -121 -117 -71 -18 17 -23 32 -23 70 l0 48 70 0 70 0 0 -47z m280 -27 c0
-72 -1 -74 -27 -81 -38 -9 -81 -51 -88 -86 l-7 -29 -228 0 -228 0 -7 29 c-7
35 -50 77 -87 86 -23 6 -28 13 -28 36 l0 29 131 0 131 0 28 -30 c38 -41 82
-41 120 -1 23 26 35 30 91 34 l64 3 -67 2 -68 2 0 40 0 40 135 0 135 0 0 -74z
m-650 -101 c28 -14 60 -60 60 -85 0 -6 -23 -10 -55 -10 l-55 0 0 55 c0 60 5
63 50 40z m650 -40 l0 -55 -55 0 c-32 0 -55 4 -55 10 0 24 32 70 58 84 46 25
52 21 52 -39z"/>
<path d="M613 773 c15 -2 37 -2 50 0 12 2 0 4 -28 4 -27 0 -38 -2 -22 -4z"/>
<path d="M738 773 c6 -2 18 -2 25 0 6 3 1 5 -13 5 -14 0 -19 -2 -12 -5z"/>
<path d="M486 418 c-19 -60 -17 -68 14 -68 28 0 30 2 24 28 -10 45 -13 52 -24
52 -6 0 -12 -6 -14 -12z m26 -28 c4 -23 1 -30 -12 -30 -13 0 -16 7 -12 30 2
17 8 30 12 30 4 0 10 -13 12 -30z"/>
<path d="M743 363 c9 -2 25 -2 35 0 9 3 1 5 -18 5 -19 0 -27 -2 -17 -5z"/>
<path d="M313 263 c9 -2 25 -2 35 0 9 3 1 5 -18 5 -19 0 -27 -2 -17 -5z"/>
<path d="M467 263 c51 -2 135 -2 185 0 51 1 10 3 -92 3 -102 0 -143 -2 -93 -3z"/>
</g>
</svg>
